# xmcd
#
# Track frame offsets: 
#        150
#        16978
#        33810
#        49881
#        64013
#        81492
#        96281
#        110455
#        127888
#        144426
#        158493
#
# Disc length: 2260 seconds
#
# Revision: 4
# Processed by: cddbd v1.5.2PL0 Copyright (c) Steve Scherf et al.
# Submitted via: ExactAudioCopyFreeDBPlugin 1.0
#
DISCID=8608d20b
DTITLE=The Shires - Brave
DYEAR=2015
DGENRE=Country
TTITLE0=Tonight
TTITLE1=Nashville Grey Skies
TTITLE2=Brave
TTITLE3=Friday Night
TTITLE4=I Just Wanna Love You
TTITLE5=All Over Again
TTITLE6=Jekyll And Hyde
TTITLE7=State Lines
TTITLE8=Black And White
TTITLE9=Made In England
TTITLE10=How Many Love Songs
EXTD=YEAR: 2015
EXTT0=
EXTT1=
EXTT2=
EXTT3=
EXTT4=
EXTT5=
EXTT6=
EXTT7=
EXTT8=
EXTT9=
EXTT10=
PLAYORDER=
